<svg width="21" height="21" viewBox="0 0 21 21" fill="none" xmlns="http://www.w3.org/2000/svg">
<g clip-path="url(#clip0_460_68)">
<path d="M16.8 0H4.2C1.88062 0 0 1.88062 0 4.2V16.8C0 19.1194 1.88062 21 4.2 21H16.8C19.1194 21 21 19.1194 21 16.8V4.2C21 1.88062 19.1194 0 16.8 0ZM17.0426 8.55147L10.5456 15.0476C10.1868 15.4073 9.71719 15.586 9.24715 15.586C8.77755 15.586 8.30706 15.4073 7.94828 15.0476L3.95694 11.0567C3.24026 10.34 3.24026 9.17655 3.95694 8.45898C4.67496 7.7414 5.83755 7.7414 6.55557 8.45898L9.2467 11.1501L14.4444 5.95238C15.1616 5.23526 16.325 5.23526 17.0422 5.95238C17.7606 6.66996 17.7606 7.83345 17.0426 8.55147Z" fill="#277B00"/>
</g>
<defs>
<clipPath id="clip0_460_68">
<rect width="21" height="21" fill="white"/>
</clipPath>
</defs>
</svg>
