<svg width="45" height="40" viewBox="0 0 45 40" fill="none" xmlns="http://www.w3.org/2000/svg">
<rect width="44.7495" height="39.1237" rx="10" fill="#24FF00"/>
<path d="M31.9049 10.4949C32.0584 10.3382 32.2417 10.2137 32.4439 10.1287C32.6462 10.0438 32.8634 10 33.0827 10C33.3021 10 33.5193 10.0438 33.7215 10.1287C33.9238 10.2137 34.1071 10.3382 34.2606 10.4949C34.9041 11.1451 34.9131 12.1959 34.2831 12.8574L20.9789 28.5849C20.8278 28.7507 20.6445 28.884 20.4402 28.9766C20.2358 29.0692 20.0147 29.1192 19.7904 29.1234C19.5661 29.1276 19.3433 29.086 19.1356 29.0011C18.928 28.9163 18.7398 28.7899 18.5826 28.6299L10.4871 20.4264C10.1749 20.1079 10 19.6798 10 19.2339C10 18.7879 10.1749 18.3598 10.4871 18.0414C10.6407 17.8847 10.8239 17.7602 11.0262 17.6752C11.2284 17.5903 11.4456 17.5465 11.665 17.5465C11.8844 17.5465 12.1015 17.5903 12.3038 17.6752C12.506 17.7602 12.6893 17.8847 12.8429 18.0414L19.7099 25.0006L31.8599 10.5444C31.8738 10.527 31.8889 10.5104 31.9049 10.4949Z" fill="white"/>
</svg>
