<svg width="20" height="20" viewBox="0 0 20 20" fill="none" xmlns="http://www.w3.org/2000/svg">
<g id="envelope-fill 1" clip-path="url(#clip0_66_74)">
<path id="Vector" d="M0.0625 6.94375C0.188523 6.39155 0.498319 5.89852 0.941152 5.54539C1.38398 5.19225 1.93361 4.99996 2.5 5H17.5C18.0664 4.99996 18.616 5.19225 19.0588 5.54539C19.5017 5.89852 19.8115 6.39155 19.9375 6.94375L10 13.0175L0.0625 6.94375ZM0 8.37125V17.2512L7.25375 12.8038L0 8.37125ZM8.45125 13.5375L0.23875 18.5713C0.441658 18.9991 0.761908 19.3605 1.16223 19.6135C1.56255 19.8664 2.02647 20.0005 2.5 20H17.5C17.9735 20.0001 18.4372 19.8658 18.8373 19.6126C19.2374 19.3595 19.5574 18.9979 19.76 18.57L11.5475 13.5363L10 14.4825L8.45125 13.5375ZM12.7462 12.805L20 17.2512V8.37125L12.7462 12.8038V12.805Z" fill="#FF0000"/>
</g>
<defs>
<clipPath id="clip0_66_74">
<rect width="20" height="20" fill="white"/>
</clipPath>
</defs>
</svg>
