<svg width="16" height="17" viewBox="0 0 16 17" fill="none" xmlns="http://www.w3.org/2000/svg">
<g id="telephone-fill 1" clipPath="url(#clip0_3_491)">
<path id="Vector" fillRule="evenodd" clipRule="evenodd" d="M1.88498 1.01099C2.05996 0.836283 2.27006 0.700753 2.50138 0.613384C2.7327 0.526016 2.97994 0.488805 3.22672 0.504217C3.47351 0.519629 3.7142 0.587313 3.93285 0.702782C4.15149 0.818252 4.34311 0.97887 4.49498 1.17399L6.28998 3.47999C6.61898 3.90299 6.73498 4.45399 6.60498 4.97399L6.05798 7.16399C6.0297 7.27742 6.03123 7.39624 6.06242 7.5089C6.09361 7.62157 6.1534 7.72426 6.23598 7.80699L8.69298 10.264C8.77582 10.3467 8.87868 10.4066 8.99153 10.4378C9.10439 10.469 9.22341 10.4705 9.33698 10.442L11.526 9.89499C11.7826 9.83083 12.0504 9.82585 12.3093 9.88042C12.5681 9.93499 12.8111 10.0477 13.02 10.21L15.326 12.004C16.155 12.649 16.231 13.874 15.489 14.615L14.455 15.649C13.715 16.389 12.609 16.714 11.578 16.351C8.93917 15.4225 6.54325 13.9118 4.56798 11.931C2.58727 9.95601 1.07659 7.56045 0.147983 4.92199C-0.214017 3.89199 0.110983 2.78499 0.850983 2.04499L1.88498 1.01099Z" fill="white"/>
</g>
<defs>
<clipPath id="clip0_3_491">
<rect width="16" height="16" fill="white" transform="translate(0 0.5)"/>
</clipPath>
</defs>
</svg>
